<svg width="46" height="42" viewBox="0 0 46 42" fill="none" xmlns="http://www.w3.org/2000/svg">
<path d="M39.8182 7.27271H6.8485C5.20898 7.27271 3.63662 7.924 2.4773 9.08332C1.31798 10.2426 0.666687 11.815 0.666687 13.4545V35.0909C0.666687 36.7304 1.31798 38.3028 2.4773 39.4621C3.63662 40.6214 5.20898 41.2727 6.8485 41.2727H39.8182C41.4577 41.2727 43.0301 40.6214 44.1894 39.4621C45.3487 38.3028 46 36.7304 46 35.0909V13.4545C46 11.815 45.3487 10.2426 44.1894 9.08332C43.0301 7.924 41.4577 7.27271 39.8182 7.27271ZM41.8788 35.0909C41.8788 35.6374 41.6617 36.1615 41.2753 36.5479C40.8888 36.9344 40.3647 37.1515 39.8182 37.1515H6.8485C6.302 37.1515 5.77787 36.9344 5.39144 36.5479C5.005 36.1615 4.7879 35.6374 4.7879 35.0909V13.4545C4.7879 12.908 5.005 12.3839 5.39144 11.9975C5.77787 11.611 6.302 11.3939 6.8485 11.3939H39.8182C40.3647 11.3939 40.8888 11.611 41.2753 11.9975C41.6617 12.3839 41.8788 12.908 41.8788 13.4545V35.0909Z" fill="#450B5A"/>
<path d="M15.0909 4.18182H31.5758C32.1223 4.18182 32.6464 3.96472 33.0329 3.57828C33.4193 3.19184 33.6364 2.66772 33.6364 2.12121C33.6364 1.57471 33.4193 1.05058 33.0329 0.664145C32.6464 0.277707 32.1223 0.0606079 31.5758 0.0606079H15.0909C14.5444 0.0606079 14.0203 0.277707 13.6339 0.664145C13.2474 1.05058 13.0303 1.57471 13.0303 2.12121C13.0303 2.66772 13.2474 3.19184 13.6339 3.57828C14.0203 3.96472 14.5444 4.18182 15.0909 4.18182Z" fill="#FF2C53"/>
<path d="M25.394 18.0909H21.2728V22.2121H17.1516V26.3333H21.2728V30.4545H25.394V26.3333H29.5152V22.2121H25.394V18.0909Z" fill="#FF2C53"/>
</svg>
